<?xml version="1.0" encoding="UTF-8" standalone="no"?><svg xmlns="http://www.w3.org/2000/svg" xmlns:xlink="http://www.w3.org/1999/xlink" contentScriptType="application/ecmascript" contentStyleType="text/css" height="564px" preserveAspectRatio="none" style="width:312px;height:564px;background:#FFFFFF;" version="1.1" viewBox="0 0 312 564" width="312px" zoomAndPan="magnify"><defs><filter height="300%" id="f103k9o45p5wmh" width="300%" x="-1" y="-1"><feGaussianBlur result="blurOut" stdDeviation="2.0"/><feColorMatrix in="blurOut" result="blurOut2" type="matrix" values="0 0 0 0 0 0 0 0 0 0 0 0 0 0 0 0 0 0 .4 0"/><feOffset dx="4.0" dy="4.0" in="blurOut2" result="blurOut3"/><feBlend in="SourceGraphic" in2="blurOut3" mode="normal"/></filter></defs><g><text fill="#000000" font-family="sans-serif" font-size="18" lengthAdjust="spacing" textLength="121" x="92" y="32.6279">启动hybrid应用</text><line style="stroke:#A80036;stroke-width:1.0;stroke-dasharray:5.0,5.0;" x1="28" x2="28" y1="81.7031" y2="518.0015"/><line style="stroke:#A80036;stroke-width:1.0;stroke-dasharray:5.0,5.0;" x1="115" x2="115" y1="81.7031" y2="518.0015"/><line style="stroke:#A80036;stroke-width:1.0;stroke-dasharray:5.0,5.0;" x1="270" x2="270" y1="81.7031" y2="518.0015"/><rect fill="#FEFECE" filter="url(#f103k9o45p5wmh)" height="33.1201" style="stroke:#A80036;stroke-width:1.5;" width="42" x="5" y="43.583"/><text fill="#000000" font-family="sans-serif" font-size="14" lengthAdjust="spacing" textLength="28" x="12" y="66.627">用户</text><rect fill="#FEFECE" filter="url(#f103k9o45p5wmh)" height="33.1201" style="stroke:#A80036;stroke-width:1.5;" width="42" x="5" y="517.0015"/><text fill="#000000" font-family="sans-serif" font-size="14" lengthAdjust="spacing" textLength="28" x="12" y="540.0454">用户</text><rect fill="#FEFECE" filter="url(#f103k9o45p5wmh)" height="33.1201" style="stroke:#A80036;stroke-width:1.5;" width="66" x="80" y="43.583"/><text fill="#000000" font-family="sans-serif" font-size="14" lengthAdjust="spacing" textLength="52" x="87" y="66.627">webview</text><rect fill="#FEFECE" filter="url(#f103k9o45p5wmh)" height="33.1201" style="stroke:#A80036;stroke-width:1.5;" width="66" x="80" y="517.0015"/><text fill="#000000" font-family="sans-serif" font-size="14" lengthAdjust="spacing" textLength="52" x="87" y="540.0454">webview</text><rect fill="#FEFECE" filter="url(#f103k9o45p5wmh)" height="33.1201" style="stroke:#A80036;stroke-width:1.5;" width="56" x="240" y="43.583"/><text fill="#000000" font-family="sans-serif" font-size="14" lengthAdjust="spacing" textLength="42" x="247" y="66.627">服务器</text><rect fill="#FEFECE" filter="url(#f103k9o45p5wmh)" height="33.1201" style="stroke:#A80036;stroke-width:1.5;" width="56" x="240" y="517.0015"/><text fill="#000000" font-family="sans-serif" font-size="14" lengthAdjust="spacing" textLength="42" x="247" y="540.0454">服务器</text><rect fill="#EEEEEE" filter="url(#f103k9o45p5wmh)" height="3" style="stroke:#EEEEEE;stroke-width:1.0;" width="305" x="0" y="113.5803"/><line style="stroke:#000000;stroke-width:1.0;" x1="0" x2="305" y1="113.5803" y2="113.5803"/><line style="stroke:#000000;stroke-width:1.0;" x1="0" x2="305" y1="116.5803" y2="116.5803"/><rect fill="#EEEEEE" filter="url(#f103k9o45p5wmh)" height="25.7544" style="stroke:#000000;stroke-width:2.0;" width="70" x="117.5" y="101.7031"/><text fill="#000000" font-family="sans-serif" font-size="13" font-weight="bold" lengthAdjust="spacing" textLength="56" x="123.5" y="120.6011">首次启动</text><polygon fill="#A80036" points="103,157.2119,113,161.2119,103,165.2119,107,161.2119" style="stroke:#A80036;stroke-width:1.0;"/><line style="stroke:#A80036;stroke-width:1.0;stroke-dasharray:2.0,2.0;" x1="28" x2="109" y1="161.2119" y2="161.2119"/><text fill="#000000" font-family="sans-serif" font-size="13" font-weight="bold" lengthAdjust="spacing" textLength="7" x="35" y="156.3555">1</text><text fill="#000000" font-family="sans-serif" font-size="13" lengthAdjust="spacing" textLength="52" x="46" y="156.3555">进入页面</text><polygon fill="#A80036" points="258,188.9663,268,192.9663,258,196.9663,262,192.9663" style="stroke:#A80036;stroke-width:1.0;"/><line style="stroke:#A80036;stroke-width:1.0;stroke-dasharray:2.0,2.0;" x1="115" x2="264" y1="192.9663" y2="192.9663"/><text fill="#000000" font-family="sans-serif" font-size="13" font-weight="bold" lengthAdjust="spacing" textLength="7" x="122" y="188.1099">2</text><text fill="#000000" font-family="sans-serif" font-size="13" lengthAdjust="spacing" textLength="78" x="133" y="188.1099">下载静态资源</text><polygon fill="#A80036" points="126,220.7207,116,224.7207,126,228.7207,122,224.7207" style="stroke:#A80036;stroke-width:1.0;"/><line style="stroke:#A80036;stroke-width:1.0;stroke-dasharray:2.0,2.0;" x1="120" x2="269" y1="224.7207" y2="224.7207"/><text fill="#000000" font-family="sans-serif" font-size="13" font-weight="bold" lengthAdjust="spacing" textLength="7" x="132" y="219.8643">3</text><text fill="#000000" font-family="sans-serif" font-size="13" lengthAdjust="spacing" textLength="78" x="143" y="219.8643">返回静态资源</text><line style="stroke:#A80036;stroke-width:1.0;stroke-dasharray:2.0,2.0;" x1="115" x2="157" y1="256.4751" y2="256.4751"/><line style="stroke:#A80036;stroke-width:1.0;stroke-dasharray:2.0,2.0;" x1="157" x2="157" y1="256.4751" y2="269.4751"/><line style="stroke:#A80036;stroke-width:1.0;stroke-dasharray:2.0,2.0;" x1="116" x2="157" y1="269.4751" y2="269.4751"/><polygon fill="#A80036" points="126,265.4751,116,269.4751,126,273.4751,122,269.4751" style="stroke:#A80036;stroke-width:1.0;"/><text fill="#000000" font-family="sans-serif" font-size="13" font-weight="bold" lengthAdjust="spacing" textLength="7" x="122" y="251.6187">4</text><text fill="#000000" font-family="sans-serif" font-size="13" lengthAdjust="spacing" textLength="95" x="133" y="251.6187">执行js, 渲染dom</text><polygon fill="#A80036" points="39,297.2295,29,301.2295,39,305.2295,35,301.2295" style="stroke:#A80036;stroke-width:1.0;"/><line style="stroke:#A80036;stroke-width:1.0;stroke-dasharray:2.0,2.0;" x1="33" x2="114" y1="301.2295" y2="301.2295"/><text fill="#000000" font-family="sans-serif" font-size="13" font-weight="bold" lengthAdjust="spacing" textLength="7" x="45" y="296.373">5</text><text fill="#000000" font-family="sans-serif" font-size="13" lengthAdjust="spacing" textLength="52" x="56" y="296.373">启动完成</text><rect fill="#EEEEEE" filter="url(#f103k9o45p5wmh)" height="3" style="stroke:#EEEEEE;stroke-width:1.0;" width="305" x="0" y="331.1067"/><line style="stroke:#000000;stroke-width:1.0;" x1="0" x2="305" y1="331.1067" y2="331.1067"/><line style="stroke:#000000;stroke-width:1.0;" x1="0" x2="305" y1="334.1067" y2="334.1067"/><rect fill="#EEEEEE" filter="url(#f103k9o45p5wmh)" height="25.7544" style="stroke:#000000;stroke-width:2.0;" width="70" x="117.5" y="319.2295"/><text fill="#000000" font-family="sans-serif" font-size="13" font-weight="bold" lengthAdjust="spacing" textLength="56" x="123.5" y="338.1274">二次启动</text><polygon fill="#A80036" points="103,374.7383,113,378.7383,103,382.7383,107,378.7383" style="stroke:#A80036;stroke-width:1.0;"/><line style="stroke:#A80036;stroke-width:1.0;stroke-dasharray:2.0,2.0;" x1="28" x2="109" y1="378.7383" y2="378.7383"/><text fill="#000000" font-family="sans-serif" font-size="13" font-weight="bold" lengthAdjust="spacing" textLength="7" x="35" y="373.8818">6</text><text fill="#000000" font-family="sans-serif" font-size="13" lengthAdjust="spacing" textLength="52" x="46" y="373.8818">进入页面</text><line style="stroke:#A80036;stroke-width:1.0;stroke-dasharray:2.0,2.0;" x1="115" x2="157" y1="410.4927" y2="410.4927"/><line style="stroke:#A80036;stroke-width:1.0;stroke-dasharray:2.0,2.0;" x1="157" x2="157" y1="410.4927" y2="423.4927"/><line style="stroke:#A80036;stroke-width:1.0;stroke-dasharray:2.0,2.0;" x1="116" x2="157" y1="423.4927" y2="423.4927"/><polygon fill="#A80036" points="126,419.4927,116,423.4927,126,427.4927,122,423.4927" style="stroke:#A80036;stroke-width:1.0;"/><text fill="#000000" font-family="sans-serif" font-size="13" font-weight="bold" lengthAdjust="spacing" textLength="7" x="122" y="405.6362">7</text><text fill="#000000" font-family="sans-serif" font-size="13" lengthAdjust="spacing" textLength="130" x="133" y="405.6362">加载已缓存的静态资源</text><line style="stroke:#A80036;stroke-width:1.0;stroke-dasharray:2.0,2.0;" x1="115" x2="157" y1="455.2471" y2="455.2471"/><line style="stroke:#A80036;stroke-width:1.0;stroke-dasharray:2.0,2.0;" x1="157" x2="157" y1="455.2471" y2="468.2471"/><line style="stroke:#A80036;stroke-width:1.0;stroke-dasharray:2.0,2.0;" x1="116" x2="157" y1="468.2471" y2="468.2471"/><polygon fill="#A80036" points="126,464.2471,116,468.2471,126,472.2471,122,468.2471" style="stroke:#A80036;stroke-width:1.0;"/><text fill="#000000" font-family="sans-serif" font-size="13" font-weight="bold" lengthAdjust="spacing" textLength="7" x="122" y="450.3906">8</text><text fill="#000000" font-family="sans-serif" font-size="13" lengthAdjust="spacing" textLength="95" x="133" y="450.3906">执行js, 渲染dom</text><polygon fill="#A80036" points="39,496.0015,29,500.0015,39,504.0015,35,500.0015" style="stroke:#A80036;stroke-width:1.0;"/><line style="stroke:#A80036;stroke-width:1.0;stroke-dasharray:2.0,2.0;" x1="33" x2="114" y1="500.0015" y2="500.0015"/><text fill="#000000" font-family="sans-serif" font-size="13" font-weight="bold" lengthAdjust="spacing" textLength="7" x="45" y="495.145">9</text><text fill="#000000" font-family="sans-serif" font-size="13" lengthAdjust="spacing" textLength="52" x="56" y="495.145">启动完成</text><!--MD5=[eeab21651f6a33b224ffe85aba147dfc]
@startuml

autonumber

title: 启动hybrid应用

==首次启动==

用户- -> webview : 进入页面
webview- -> 服务器 : 下载静态资源
服务器 - -> webview : 返回静态资源
webview - -> webview : 执行js, 渲染dom
webview - -> 用户: 启动完成

==二次启动==

用户- -> webview : 进入页面
webview- -> webview : 加载已缓存的静态资源
webview - -> webview : 执行js, 渲染dom
webview - -> 用户: 启动完成

@enduml

PlantUML version 1.2021.7(Sun May 23 20:40:07 CST 2021)
(GPL source distribution)
Java Runtime: Java(TM) SE Runtime Environment
JVM: Java HotSpot(TM) 64-Bit Server VM
Default Encoding: GBK
Language: zh
Country: CN
--></g></svg>